ffmpeg started on 2026-03-28 at 16:05:14
Report written to "D:\Convert\FFMetrics\reports\psnr_report-6.txt"
Log level: 32
Command line:
ffmpeg -hide_banner -nostdin -r 24000/1001 -i "F:\\\xc0\xed\xe8\xec\xe5\\\xce\xed\xe3\xee\xe8\xed\xe3\xe8\\!_40_\xce\xf1\xe5\xed\xfc_2025\\JamClub\\\xcc\xeb\xe0\xe4\xf8\xe0\xff \xf1\xe5\xf1\xf2\xf0\xe0 \xec\xee\xe5\xe3\xee \xe4\xf0\xf3\xe3\xe0 \xe4\xee\xf1\xe0\xe6\xe4\xe0\xe5\xf2\\JamClub_Tomodachi_no_Imouto_ga_Ore_ni_dake_Uzai_07_1080p_HEVC.mkv" -r 24000/1001 -i "F:\\\xc0\xed\xe8\xec\xe5\\\xce\xed\xe3\xee\xe8\xed\xe3\xe8\\!_40_\xce\xf1\xe5\xed\xfc_2025\\JamClub\\\xcc\xeb\xe0\xe4\xf8\xe0\xff \xf1\xe5\xf1\xf2\xf0\xe0 \xec\xee\xe5\xe3\xee \xe4\xf0\xf3\xe3\xe0 \xe4\xee\xf1\xe0\xe6\xe4\xe0\xe5\xf2\\JamClub_Tomodachi_no_Imouto_ga_Ore_ni_dake_Uzai_07_1080p.mp4" -lavfi "[0:v]settb=AVTB,setpts=PTS-STARTPTS,format=pix_fmts=yuv420p10le,fps=24000/1001,scale=1920:1080:flags=lanczos:param0=3:out_range=limited:out_color_matrix=bt709:out_chroma_loc=left,setsar=1/1,setdar=(1920/1080)*(1/1),colorspace=format=yuv420p10:range=tv:primaries=bt709:trc=bt709:space=bt709:fast=0[main];[1:v]settb=AVTB,setpts=PTS-STARTPTS,format=pix_fmts=yuv420p,fps=24000/1001,scale=1920:1080:flags=lanczos:param0=3:out_range=limited:out_color_matrix=bt709:out_chroma_loc=left,setsar=1/1,setdar=(1920/1080)*(1/1),colorspace=format=yuv420p:range=tv:primaries=bt709:trc=bt709:space=bt709:fast=0[ref];[main][ref]psnr=eof_action=endall:stats_file='D\\:/Convert/FFMetrics/logs/psnr_logfile-6.txt'" -f null -
Input #0, matroska,webm, from 'F:\Аниме\Онгоинги\!_40_Осень_2025\JamClub\Младшая сестра моего друга досаждает\JamClub_Tomodachi_no_Imouto_ga_Ore_ni_dake_Uzai_07_1080p_HEVC.mkv':
  Metadata:
    COMPATIBLE_BRANDS: isomiso2avc1mp41
    MAJOR_BRAND     : isom
    MINOR_VERSION   : 512
    ENCODER         : Lavf61.7.100
  Duration: 00:23:49.53, start: -0.021000, bitrate: 981 kb/s
  Stream #0:0: Video: hevc (Main 10), yuv420p10le(tv, bt709, progressive), 1920x1080 [SAR 1:1 DAR 16:9], 23.98 fps, 23.98 tbr, 1k tbn (default)
      Metadata:
        HANDLER_NAME    : VideoHandler
        VENDOR_ID       : [0][0][0][0]
        ENCODER         : Lavc61.19.100 libx265
        BPS             : 786175
        DURATION        : 00:23:49.427708333
        NUMBER_OF_FRAMES: 34272
        NUMBER_OF_BYTES : 140472603
        _STATISTICS_WRITING_APP: mkvpropedit v94.0 ('Initiate') 64-bit
        _STATISTICS_WRITING_DATE_UTC: 2026-03-28 10:49:14
        _STATISTICS_TAGS: BPS DURATION NUMBER_OF_FRAMES NUMBER_OF_BYTES
  Stream #0:1(eng): Audio: aac (LC), 48000 Hz, stereo, fltp (default)
      Metadata:
        HANDLER_NAME    : SoundHandler
        VENDOR_ID       : [0][0][0][0]
        ENCODER         : Lavc61.19.100 aac
        BPS             : 191359
        DURATION        : 00:23:49.507000000
        NUMBER_OF_FRAMES: 67009
        NUMBER_OF_BYTES : 34193666
        _STATISTICS_WRITING_APP: mkvpropedit v94.0 ('Initiate') 64-bit
        _STATISTICS_WRITING_DATE_UTC: 2026-03-28 10:49:14
        _STATISTICS_TAGS: BPS DURATION NUMBER_OF_FRAMES NUMBER_OF_BYTES
Input #1, mov,mp4,m4a,3gp,3g2,mj2, from 'F:\Аниме\Онгоинги\!_40_Осень_2025\JamClub\Младшая сестра моего друга досаждает\JamClub_Tomodachi_no_Imouto_ga_Ore_ni_dake_Uzai_07_1080p.mp4':
  Metadata:
    major_brand     : isom
    minor_version   : 512
    compatible_brands: isomiso2avc1mp41
    encoder         : Lavf60.16.100
  Duration: 00:23:49.51, start: 0.000000, bitrate: 3401 kb/s
  Stream #1:0[0x1](und): Video: h264 (High) (avc1 / 0x31637661), yuv420p(tv, bt709, progressive), 1920x1080 [SAR 1:1 DAR 16:9], 3203 kb/s, 23.98 fps, 23.98 tbr, 90k tbn (default)
      Metadata:
        handler_name    : VideoHandler
        vendor_id       : [0][0][0][0]
  Stream #1:1[0x2](eng): Audio: aac (LC) (mp4a / 0x6134706D), 48000 Hz, stereo, fltp, 191 kb/s (default)
      Metadata:
        handler_name    : SoundHandler
        vendor_id       : [0][0][0][0]
Stream mapping:
  Stream #0:0 (hevc) -> settb:default
  Stream #1:0 (h264) -> settb:default
  psnr:default -> Stream #0:0 (wrapped_avframe)
  Stream #0:1 -> #0:1 (aac (native) -> pcm_s16le (native))
Output #0, null, to 'pipe:':
  Metadata:
    COMPATIBLE_BRANDS: isomiso2avc1mp41
    MAJOR_BRAND     : isom
    MINOR_VERSION   : 512
    encoder         : Lavf61.7.100
  Stream #0:0: Video: wrapped_avframe, yuv420p10le(tv, bt709, progressive), 1920x1080 [SAR 1:1 DAR 16:9], q=2-31, 200 kb/s, 23.98 fps, 23.98 tbn
      Metadata:
        encoder         : Lavc61.19.100 wrapped_avframe
  Stream #0:1(eng): Audio: pcm_s16le, 48000 Hz, stereo, s16, 1536 kb/s (default)
      Metadata:
        HANDLER_NAME    : SoundHandler
        VENDOR_ID       : [0][0][0][0]
        _STATISTICS_TAGS: BPS DURATION NUMBER_OF_FRAMES NUMBER_OF_BYTES
        BPS             : 191359
        DURATION        : 00:23:49.507000000
        NUMBER_OF_FRAMES: 67009
        NUMBER_OF_BYTES : 34193666
        _STATISTICS_WRITING_APP: mkvpropedit v94.0 ('Initiate') 64-bit
        _STATISTICS_WRITING_DATE_UTC: 2026-03-28 10:49:14
        encoder         : Lavc61.19.100 pcm_s16le
frame=  109 fps=0.0 q=-0.0 size=N/A time=00:00:04.54 bitrate=N/A speed=8.87x    frame=  252 fps=246 q=-0.0 size=N/A time=00:00:10.51 bitrate=N/A speed=10.3x    frame=  414 fps=267 q=-0.0 size=N/A time=00:00:17.26 bitrate=N/A speed=11.1x    frame=  600 fps=291 q=-0.0 size=N/A time=00:00:25.02 bitrate=N/A speed=12.1x    frame=  804 fps=311 q=-0.0 size=N/A time=00:00:33.53 bitrate=N/A speed=  13x    frame= 1000 fps=323 q=-0.0 size=N/A time=00:00:41.70 bitrate=N/A speed=13.5x    frame= 1189 fps=330 q=-0.0 size=N/A time=00:00:49.59 bitrate=N/A speed=13.8x    frame= 1392 fps=337 q=-0.0 size=N/A time=00:00:58.05 bitrate=N/A speed=14.1x    frame= 1601 fps=345 q=-0.0 size=N/A time=00:01:06.77 bitrate=N/A speed=14.4x    frame= 1799 fps=349 q=-0.0 size=N/A time=00:01:15.03 bitrate=N/A speed=14.6x    frame= 2000 fps=353 q=-0.0 size=N/A time=00:01:23.41 bitrate=N/A speed=14.7x    frame= 2198 fps=355 q=-0.0 size=N/A time=00:01:31.67 bitrate=N/A speed=14.8x    frame= 2380 fps=355 q=-0.0 size=N/A time=00:01:39.26 bitrate=N/A speed=14.8x    frame= 2568 fps=356 q=-0.0 size=N/A time=00:01:47.10 bitrate=N/A speed=14.8x    frame= 2766 fps=357 q=-0.0 size=N/A time=00:01:55.36 bitrate=N/A speed=14.9x    frame= 2966 fps=359 q=-0.0 size=N/A time=00:02:03.70 bitrate=N/A speed=  15x    frame= 3138 fps=358 q=-0.0 size=N/A time=00:02:10.88 bitrate=N/A speed=14.9x    frame= 3269 fps=352 q=-0.0 size=N/A time=00:02:16.34 bitrate=N/A speed=14.7x    frame= 3441 fps=351 q=-0.0 size=N/A time=00:02:23.51 bitrate=N/A speed=14.7x    frame= 3598 fps=349 q=-0.0 size=N/A time=00:02:30.06 bitrate=N/A speed=14.6x    frame= 3779 fps=349 q=-0.0 size=N/A time=00:02:37.61 bitrate=N/A speed=14.6x    frame= 3936 fps=347 q=-0.0 size=N/A time=00:02:44.16 bitrate=N/A speed=14.5x    frame= 4119 fps=347 q=-0.0 size=N/A time=00:02:51.79 bitrate=N/A speed=14.5x    frame= 4290 fps=347 q=-0.0 size=N/A time=00:02:58.92 bitrate=N/A speed=14.5x    frame= 4467 fps=347 q=-0.0 size=N/A time=00:03:06.31 bitrate=N/A speed=14.5x    frame= 4600 fps=343 q=-0.0 size=N/A time=00:03:11.85 bitrate=N/A speed=14.3x    frame= 4733 fps=340 q=-0.0 size=N/A time=00:03:17.40 bitrate=N/A speed=14.2x    frame= 4895 fps=339 q=-0.0 size=N/A time=00:03:24.16 bitrate=N/A speed=14.1x    frame= 5052 fps=338 q=-0.0 size=N/A time=00:03:30.71 bitrate=N/A speed=14.1x    frame= 5202 fps=336 q=-0.0 size=N/A time=00:03:36.96 bitrate=N/A speed=  14x    frame= 5415 fps=339 q=-0.0 size=N/A time=00:03:45.85 bitrate=N/A speed=14.1x    frame= 5611 fps=340 q=-0.0 size=N/A time=00:03:54.02 bitrate=N/A speed=14.2x    frame= 5814 fps=342 q=-0.0 size=N/A time=00:04:02.49 bitrate=N/A speed=14.3x    frame= 6027 fps=344 q=-0.0 size=N/A time=00:04:11.37 bitrate=N/A speed=14.3x    frame= 6218 fps=345 q=-0.0 size=N/A time=00:04:19.34 bitrate=N/A speed=14.4x    frame= 6418 fps=346 q=-0.0 size=N/A time=00:04:27.68 bitrate=N/A speed=14.4x    frame= 6619 fps=347 q=-0.0 size=N/A time=00:04:36.06 bitrate=N/A speed=14.5x    frame= 6813 fps=348 q=-0.0 size=N/A time=00:04:44.15 bitrate=N/A speed=14.5x    frame= 7023 fps=349 q=-0.0 size=N/A time=00:04:52.91 bitrate=N/A speed=14.6x    frame= 7225 fps=350 q=-0.0 size=N/A time=00:05:01.34 bitrate=N/A speed=14.6x    frame= 7424 fps=351 q=-0.0 size=N/A time=00:05:09.64 bitrate=N/A speed=14.6x    frame= 7632 fps=352 q=-0.0 size=N/A time=00:05:18.31 bitrate=N/A speed=14.7x    frame= 7833 fps=353 q=-0.0 size=N/A time=00:05:26.70 bitrate=N/A speed=14.7x    frame= 8039 fps=354 q=-0.0 size=N/A time=00:05:35.29 bitrate=N/A speed=14.8x    frame= 8227 fps=355 q=-0.0 size=N/A time=00:05:43.13 bitrate=N/A speed=14.8x    frame= 8421 fps=355 q=-0.0 size=N/A time=00:05:51.22 bitrate=N/A speed=14.8x    frame= 8619 fps=356 q=-0.0 size=N/A time=00:05:59.48 bitrate=N/A speed=14.8x    frame= 8820 fps=356 q=-0.0 size=N/A time=00:06:07.86 bitrate=N/A speed=14.9x    frame= 9015 fps=357 q=-0.0 size=N/A time=00:06:16.00 bitrate=N/A speed=14.9x    frame= 9214 fps=357 q=-0.0 size=N/A time=00:06:24.30 bitrate=N/A speed=14.9x    frame= 9411 fps=358 q=-0.0 size=N/A time=00:06:32.51 bitrate=N/A speed=14.9x    frame= 9588 fps=358 q=-0.0 size=N/A time=00:06:39.89 bitrate=N/A speed=14.9x    frame= 9774 fps=358 q=-0.0 size=N/A time=00:06:47.65 bitrate=N/A speed=14.9x    frame= 9987 fps=359 q=-0.0 size=N/A time=00:06:56.54 bitrate=N/A speed=  15x    frame=10196 fps=359 q=-0.0 size=N/A time=00:07:05.25 bitrate=N/A speed=  15x    frame=10404 fps=360 q=-0.0 size=N/A time=00:07:13.93 bitrate=N/A speed=  15x    frame=10605 fps=361 q=-0.0 size=N/A time=00:07:22.31 bitrate=N/A speed=  15x    frame=10812 fps=361 q=-0.0 size=N/A time=00:07:30.95 bitrate=N/A speed=15.1x    frame=11007 fps=362 q=-0.0 size=N/A time=00:07:39.08 bitrate=N/A speed=15.1x    frame=11211 fps=362 q=-0.0 size=N/A time=00:07:47.59 bitrate=N/A speed=15.1x    frame=11409 fps=363 q=-0.0 size=N/A time=00:07:55.85 bitrate=N/A speed=15.1x    frame=11606 fps=363 q=-0.0 size=N/A time=00:08:04.06 bitrate=N/A speed=15.1x    frame=11812 fps=363 q=-0.0 size=N/A time=00:08:12.65 bitrate=N/A speed=15.2x    frame=12007 fps=364 q=-0.0 size=N/A time=00:08:20.79 bitrate=N/A speed=15.2x    frame=12204 fps=364 q=-0.0 size=N/A time=00:08:29.00 bitrate=N/A speed=15.2x    frame=12398 fps=364 q=-0.0 size=N/A time=00:08:37.09 bitrate=N/A speed=15.2x    frame=12613 fps=365 q=-0.0 size=N/A time=00:08:46.06 bitrate=N/A speed=15.2x    frame=12812 fps=365 q=-0.0 size=N/A time=00:08:54.36 bitrate=N/A speed=15.2x    frame=13003 fps=365 q=-0.0 size=N/A time=00:09:02.33 bitrate=N/A speed=15.2x    frame=13211 fps=366 q=-0.0 size=N/A time=00:09:11.00 bitrate=N/A speed=15.3x    frame=13411 fps=366 q=-0.0 size=N/A time=00:09:19.35 bitrate=N/A speed=15.3x    frame=13600 fps=366 q=-0.0 size=N/A time=00:09:27.23 bitrate=N/A speed=15.3x    frame=13808 fps=367 q=-0.0 size=N/A time=00:09:35.90 bitrate=N/A speed=15.3x    frame=14009 fps=367 q=-0.0 size=N/A time=00:09:44.29 bitrate=N/A speed=15.3x    frame=14201 fps=367 q=-0.0 size=N/A time=00:09:52.30 bitrate=N/A speed=15.3x    frame=14403 fps=367 q=-0.0 size=N/A time=00:10:00.72 bitrate=N/A speed=15.3x    frame=14608 fps=368 q=-0.0 size=N/A time=00:10:09.27 bitrate=N/A speed=15.3x    frame=14817 fps=368 q=-0.0 size=N/A time=00:10:17.99 bitrate=N/A speed=15.4x    frame=15008 fps=368 q=-0.0 size=N/A time=00:10:25.95 bitrate=N/A speed=15.4x    frame=15194 fps=368 q=-0.0 size=N/A time=00:10:33.71 bitrate=N/A speed=15.4x    frame=15402 fps=369 q=-0.0 size=N/A time=00:10:42.39 bitrate=N/A speed=15.4x    frame=15599 fps=369 q=-0.0 size=N/A time=00:10:50.60 bitrate=N/A speed=15.4x    frame=15808 fps=369 q=-0.0 size=N/A time=00:10:59.32 bitrate=N/A speed=15.4x    frame=16012 fps=370 q=-0.0 size=N/A time=00:11:07.83 bitrate=N/A speed=15.4x    frame=16221 fps=370 q=-0.0 size=N/A time=00:11:16.55 bitrate=N/A speed=15.4x    frame=16423 fps=370 q=-0.0 size=N/A time=00:11:24.97 bitrate=N/A speed=15.4x    frame=16614 fps=370 q=-0.0 size=N/A time=00:11:32.94 bitrate=N/A speed=15.4x    frame=16727 fps=369 q=-0.0 size=N/A time=00:11:37.65 bitrate=N/A speed=15.4x    frame=16841 fps=367 q=-0.0 size=N/A time=00:11:42.41 bitrate=N/A speed=15.3x    frame=16968 fps=365 q=-0.0 size=N/A time=00:11:47.70 bitrate=N/A speed=15.2x    frame=17171 fps=366 q=-0.0 size=N/A time=00:11:56.17 bitrate=N/A speed=15.3x    frame=17369 fps=366 q=-0.0 size=N/A time=00:12:04.43 bitrate=N/A speed=15.3x    frame=17574 fps=366 q=-0.0 size=N/A time=00:12:12.98 bitrate=N/A speed=15.3x    frame=17779 fps=366 q=-0.0 size=N/A time=00:12:21.53 bitrate=N/A speed=15.3x    frame=17979 fps=367 q=-0.0 size=N/A time=00:12:29.87 bitrate=N/A speed=15.3x    frame=18187 fps=367 q=-0.0 size=N/A time=00:12:38.54 bitrate=N/A speed=15.3x    frame=18376 fps=367 q=-0.0 size=N/A time=00:12:46.43 bitrate=N/A speed=15.3x    frame=18589 fps=367 q=-0.0 size=N/A time=00:12:55.31 bitrate=N/A speed=15.3x    frame=18790 fps=368 q=-0.0 size=N/A time=00:13:03.69 bitrate=N/A speed=15.3x    frame=18990 fps=368 q=-0.0 size=N/A time=00:13:12.04 bitrate=N/A speed=15.3x    frame=19195 fps=368 q=-0.0 size=N/A time=00:13:20.59 bitrate=N/A speed=15.4x    frame=19391 fps=368 q=-0.0 size=N/A time=00:13:28.76 bitrate=N/A speed=15.4x    frame=19593 fps=369 q=-0.0 size=N/A time=00:13:37.19 bitrate=N/A speed=15.4x    frame=19803 fps=369 q=-0.0 size=N/A time=00:13:45.95 bitrate=N/A speed=15.4x    frame=19932 fps=368 q=-0.0 size=N/A time=00:13:51.33 bitrate=N/A speed=15.3x    frame=20106 fps=368 q=-0.0 size=N/A time=00:13:58.58 bitrate=N/A speed=15.3x    frame=20299 fps=368 q=-0.0 size=N/A time=00:14:06.63 bitrate=N/A speed=15.3x    frame=20503 fps=368 q=-0.0 size=N/A time=00:14:15.14 bitrate=N/A speed=15.3x    frame=20709 fps=368 q=-0.0 size=N/A time=00:14:23.73 bitrate=N/A speed=15.4x    frame=20912 fps=368 q=-0.0 size=N/A time=00:14:32.20 bitrate=N/A speed=15.4x    frame=21118 fps=369 q=-0.0 size=N/A time=00:14:40.79 bitrate=N/A speed=15.4x    frame=21315 fps=369 q=-0.0 size=N/A time=00:14:49.01 bitrate=N/A speed=15.4x    frame=21488 fps=368 q=-0.0 size=N/A time=00:14:56.22 bitrate=N/A speed=15.4x    frame=21681 fps=369 q=-0.0 size=N/A time=00:15:04.27 bitrate=N/A speed=15.4x    frame=21883 fps=369 q=-0.0 size=N/A time=00:15:12.70 bitrate=N/A speed=15.4x    frame=22090 fps=369 q=-0.0 size=N/A time=00:15:21.33 bitrate=N/A speed=15.4x    frame=22268 fps=369 q=-0.0 size=N/A time=00:15:28.76 bitrate=N/A speed=15.4x    frame=22450 fps=369 q=-0.0 size=N/A time=00:15:36.35 bitrate=N/A speed=15.4x    frame=22650 fps=369 q=-0.0 size=N/A time=00:15:44.69 bitrate=N/A speed=15.4x    frame=22845 fps=369 q=-0.0 size=N/A time=00:15:52.82 bitrate=N/A speed=15.4x    frame=23060 fps=369 q=-0.0 size=N/A time=00:16:01.79 bitrate=N/A speed=15.4x    frame=23266 fps=370 q=-0.0 size=N/A time=00:16:10.38 bitrate=N/A speed=15.4x    frame=23476 fps=370 q=-0.0 size=N/A time=00:16:19.14 bitrate=N/A speed=15.4x    frame=23676 fps=370 q=-0.0 size=N/A time=00:16:27.48 bitrate=N/A speed=15.4x    frame=23865 fps=370 q=-0.0 size=N/A time=00:16:35.36 bitrate=N/A speed=15.4x    frame=24059 fps=370 q=-0.0 size=N/A time=00:16:43.46 bitrate=N/A speed=15.4x    frame=24241 fps=370 q=-0.0 size=N/A time=00:16:51.05 bitrate=N/A speed=15.4x    frame=24427 fps=370 q=-0.0 size=N/A time=00:16:58.80 bitrate=N/A speed=15.4x    frame=24619 fps=370 q=-0.0 size=N/A time=00:17:06.81 bitrate=N/A speed=15.4x    frame=24802 fps=370 q=-0.0 size=N/A time=00:17:14.45 bitrate=N/A speed=15.4x    frame=24998 fps=370 q=-0.0 size=N/A time=00:17:22.62 bitrate=N/A speed=15.4x    frame=25193 fps=370 q=-0.0 size=N/A time=00:17:30.75 bitrate=N/A speed=15.4x    frame=25385 fps=370 q=-0.0 size=N/A time=00:17:38.76 bitrate=N/A speed=15.4x    frame=25584 fps=370 q=-0.0 size=N/A time=00:17:47.06 bitrate=N/A speed=15.4x    frame=25784 fps=370 q=-0.0 size=N/A time=00:17:55.40 bitrate=N/A speed=15.4x    frame=25983 fps=370 q=-0.0 size=N/A time=00:18:03.70 bitrate=N/A speed=15.4x    frame=26173 fps=370 q=-0.0 size=N/A time=00:18:11.63 bitrate=N/A speed=15.4x    frame=26369 fps=370 q=-0.0 size=N/A time=00:18:19.80 bitrate=N/A speed=15.4x    frame=26578 fps=371 q=-0.0 size=N/A time=00:18:28.52 bitrate=N/A speed=15.5x    frame=26769 fps=371 q=-0.0 size=N/A time=00:18:36.49 bitrate=N/A speed=15.5x    frame=26970 fps=371 q=-0.0 size=N/A time=00:18:44.87 bitrate=N/A speed=15.5x    frame=27162 fps=371 q=-0.0 size=N/A time=00:18:52.88 bitrate=N/A speed=15.5x    frame=27356 fps=371 q=-0.0 size=N/A time=00:19:00.97 bitrate=N/A speed=15.5x    frame=27559 fps=371 q=-0.0 size=N/A time=00:19:09.43 bitrate=N/A speed=15.5x    frame=27759 fps=371 q=-0.0 size=N/A time=00:19:17.78 bitrate=N/A speed=15.5x    frame=27967 fps=371 q=-0.0 size=N/A time=00:19:26.45 bitrate=N/A speed=15.5x    frame=28172 fps=371 q=-0.0 size=N/A time=00:19:35.00 bitrate=N/A speed=15.5x    frame=28379 fps=372 q=-0.0 size=N/A time=00:19:43.64 bitrate=N/A speed=15.5x    frame=28570 fps=372 q=-0.0 size=N/A time=00:19:51.60 bitrate=N/A speed=15.5x    frame=28776 fps=372 q=-0.0 size=N/A time=00:20:00.19 bitrate=N/A speed=15.5x    frame=28980 fps=372 q=-0.0 size=N/A time=00:20:08.70 bitrate=N/A speed=15.5x    frame=29175 fps=372 q=-0.0 size=N/A time=00:20:16.84 bitrate=N/A speed=15.5x    frame=29362 fps=372 q=-0.0 size=N/A time=00:20:24.64 bitrate=N/A speed=15.5x    frame=29572 fps=372 q=-0.0 size=N/A time=00:20:33.39 bitrate=N/A speed=15.5x    frame=29755 fps=372 q=-0.0 size=N/A time=00:20:41.03 bitrate=N/A speed=15.5x    frame=29953 fps=372 q=-0.0 size=N/A time=00:20:49.28 bitrate=N/A speed=15.5x    frame=30165 fps=372 q=-0.0 size=N/A time=00:20:58.13 bitrate=N/A speed=15.5x    frame=30365 fps=372 q=-0.0 size=N/A time=00:21:06.47 bitrate=N/A speed=15.5x    frame=30568 fps=373 q=-0.0 size=N/A time=00:21:14.94 bitrate=N/A speed=15.5x    frame=30770 fps=373 q=-0.0 size=N/A time=00:21:23.36 bitrate=N/A speed=15.5x    frame=30984 fps=373 q=-0.0 size=N/A time=00:21:32.29 bitrate=N/A speed=15.6x    frame=31190 fps=373 q=-0.0 size=N/A time=00:21:40.88 bitrate=N/A speed=15.6x    frame=31396 fps=373 q=-0.0 size=N/A time=00:21:49.47 bitrate=N/A speed=15.6x    frame=31587 fps=373 q=-0.0 size=N/A time=00:21:57.44 bitrate=N/A speed=15.6x    frame=31779 fps=373 q=-0.0 size=N/A time=00:22:05.44 bitrate=N/A speed=15.6x    frame=31980 fps=373 q=-0.0 size=N/A time=00:22:13.83 bitrate=N/A speed=15.6x    frame=32169 fps=373 q=-0.0 size=N/A time=00:22:21.71 bitrate=N/A speed=15.6x    frame=32350 fps=373 q=-0.0 size=N/A time=00:22:29.26 bitrate=N/A speed=15.6x    frame=32541 fps=373 q=-0.0 size=N/A time=00:22:37.23 bitrate=N/A speed=15.6x    frame=32724 fps=373 q=-0.0 size=N/A time=00:22:44.86 bitrate=N/A speed=15.6x    frame=32914 fps=373 q=-0.0 size=N/A time=00:22:52.78 bitrate=N/A speed=15.6x    frame=33101 fps=373 q=-0.0 size=N/A time=00:23:00.58 bitrate=N/A speed=15.6x    frame=33279 fps=373 q=-0.0 size=N/A time=00:23:08.01 bitrate=N/A speed=15.6x    frame=33463 fps=373 q=-0.0 size=N/A time=00:23:15.68 bitrate=N/A speed=15.5x    frame=33645 fps=373 q=-0.0 size=N/A time=00:23:23.27 bitrate=N/A speed=15.5x    frame=33834 fps=373 q=-0.0 size=N/A time=00:23:31.15 bitrate=N/A speed=15.5x    frame=33998 fps=372 q=-0.0 size=N/A time=00:23:37.99 bitrate=N/A speed=15.5x    frame=34202 fps=372 q=-0.0 size=N/A time=00:23:46.50 bitrate=N/A speed=15.5x    [Parsed_psnr_16 @ 0000019778484240] PSNR y:49.275653 u:51.563536 v:51.130827 average:49.861498 min:37.690439 max:inf
[out#0/null @ 000001977107ae00] video:14726KiB audio:268036KiB subtitle:0KiB other streams:0KiB global headers:0KiB muxing overhead: unknown
frame=34272 fps=372 q=-0.0 Lsize=N/A time=00:23:49.42 bitrate=N/A speed=15.5x    
